<svg id="Layer_1" data-name="Layer 1" xmlns="http://www.w3.org/2000/svg" viewBox="0 0 500 500" width="500" height="500" class="illustration"><defs><style>.cls-1{fill:#f2f2f2;}.cls-2{fill:#c3c7c9;opacity:0.26;}.cls-3{fill:#0099f5;}.cls-4{fill:#f0457d;}.cls-5{fill:#24285b;}.cls-6{fill:#12173f;}.cls-7{fill:#ffd44d;}.cls-8{fill:#f9bb0d;}.cls-9{fill:#fff;}</style></defs><title>Contact Us</title><path class="cls-1" d="M444.34,167.73V419.57a2.47,2.47,0,0,1-2.47,2.47H58.13a2.47,2.47,0,0,1-2.47-2.47V167.73Z"></path><path class="cls-2" d="M55.66,167.73v30.78H423.9V422h18a2.47,2.47,0,0,0,2.47-2.47V167.73Z"></path><rect class="cls-3" x="156.83" y="213.04" width="48.02" height="48.03" rx="3"></rect><rect class="cls-3" x="224.87" y="213.04" width="48.02" height="48.03" rx="3"></rect><rect class="cls-3" x="292.9" y="213.04" width="48.03" height="48.03" rx="3"></rect><rect class="cls-3" x="360.94" y="213.04" width="48.03" height="48.03" rx="3"></rect><rect class="cls-3" x="156.83" y="279.74" width="48.02" height="48.03" rx="3"></rect><rect class="cls-3" x="88.8" y="279.74" width="48.02" height="48.03" rx="3"></rect><rect class="cls-4" x="224.87" y="279.74" width="48.02" height="48.03" rx="3"></rect><rect class="cls-3" x="292.9" y="279.74" width="48.03" height="48.03" rx="3"></rect><rect class="cls-3" x="360.94" y="279.74" width="48.03" height="48.03" rx="3"></rect><rect class="cls-3" x="156.83" y="346.45" width="48.02" height="48.03" rx="3"></rect><rect class="cls-3" x="88.8" y="346.45" width="48.02" height="48.03" rx="3"></rect><rect class="cls-3" x="224.87" y="346.45" width="48.02" height="48.03" rx="3"></rect><rect class="cls-3" x="88.39" y="212.73" width="48.03" height="48.03" rx="3"></rect><path class="cls-5" d="M444.34,111v69.51H55.66V111a2.48,2.48,0,0,1,2.47-2.47H441.87A2.48,2.48,0,0,1,444.34,111Z"></path><circle class="cls-6" cx="104.58" cy="147.9" r="19.34"></circle><circle class="cls-6" cx="398.07" cy="147.9" r="19.34"></circle><path class="cls-7" d="M115.93,98.54v50.69a11.34,11.34,0,0,1-11.13,11.34h-.21a11.34,11.34,0,0,1-11.34-11.34V98.54A11.34,11.34,0,0,1,104.59,87.2h.21a11.35,11.35,0,0,1,11.13,11.34Z"></path><path class="cls-8" d="M104.8,87.2v73.37h-.21a11.34,11.34,0,0,1-11.34-11.34V98.54A11.34,11.34,0,0,1,104.59,87.2Z"></path><path class="cls-7" d="M409,98.54v50.69a11.34,11.34,0,0,1-11.12,11.34h-.22a11.34,11.34,0,0,1-11.34-11.34V98.54A11.34,11.34,0,0,1,397.63,87.2h.22a11.33,11.33,0,0,1,10.47,7.56A11,11,0,0,1,409,98.54Z"></path><path class="cls-8" d="M397.85,87.2v73.37h-.22a11.34,11.34,0,0,1-11.34-11.34V98.54A11.34,11.34,0,0,1,397.63,87.2Z"></path><rect class="cls-3" x="292.9" y="345.77" width="48.02" height="48.03" rx="3"></rect><path class="cls-9" d="M247.21,320.42a3.19,3.19,0,0,1,0-4.54,3.24,3.24,0,0,1,2.34-.92,3.07,3.07,0,0,1,2.29.92,3.2,3.2,0,0,1-2.29,5.46A3.24,3.24,0,0,1,247.21,320.42Zm-.5-34.24h5.63l-1,23.85h-3.78Z"></path></svg>