<svg xmlns="http://www.w3.org/2000/svg" viewBox="0 0 100 100" width="500" height="500" class="illustration"><defs><style>.cls-1{fill:none;}.cls-1,.cls-3{stroke:#231f20;}.cls-1,.cls-4{stroke-miterlimit:10;}.cls-1,.cls-3,.cls-4,.cls-5{stroke-width:1.5px;}.cls-2,.cls-3{fill:#ffd44d;}.cls-3,.cls-5{stroke-linejoin:bevel;}.cls-4{fill:#221f20;}.cls-4,.cls-5{stroke:#221f20;}.cls-5{fill:#f8d366;}</style></defs><g id="Layer_2" data-name="Layer 2"><path class="cls-1" d="M27.72,15.29h56a2.09,2.09,0,0,1,2.09,2.09V52a0,0,0,0,1,0,0H25.63a0,0,0,0,1,0,0V17.38A2.09,2.09,0,0,1,27.72,15.29Z"></path><polygon class="cls-2" points="15.77 55.7 95.64 55.7 85.78 51.95 25.63 51.95 15.77 55.7"></polygon><line class="cls-1" x1="15.77" y1="55.7" x2="95.64" y2="55.7"></line><path class="cls-1" d="M15.77,55.7h0c0,1.43,1.16,5.67,2.58,5.67H93.06c1.42,0,2.58-4.24,2.58-5.67h0L85.78,52H25.63L20.7,53.83"></path><line class="cls-3" x1="44.36" y1="23.02" x2="57.6" y2="23.02"></line><line class="cls-3" x1="32" y1="23.02" x2="38.18" y2="23.02"></line><line class="cls-3" x1="32" y1="30.52" x2="80.45" y2="30.52"></line><line class="cls-3" x1="64.78" y1="38.12" x2="76.67" y2="38.12"></line><line class="cls-3" x1="32" y1="38.12" x2="59.73" y2="38.12"></line><line class="cls-3" x1="53.21" y1="45.72" x2="73.08" y2="45.72"></line><line class="cls-3" x1="32" y1="45.72" x2="49.22" y2="45.72"></line><path class="cls-1" d="M49.6,55.7h0a2.66,2.66,0,0,0,2.66,2.66h6.89a2.66,2.66,0,0,0,2.66-2.66h0"></path><rect class="cls-4" x="19.07" y="69.56" width="11.09" height="15.06" rx="2.08"></rect><path class="cls-5" d="M47.46,71.1V82.45A2.48,2.48,0,0,1,45,84.92H36.39c-.73,0-4.73-1.94-5.47-1.94H26.58V71.28h4.34a3.4,3.4,0,0,0,1.2-.57l2.94-2.09H45A2.49,2.49,0,0,1,47.46,71.1Z"></path><polyline class="cls-5" points="41.53 84.06 53.38 34.4 51.65 34.4 39.8 84.06"></polyline><rect class="cls-5" x="44.37" y="68.62" width="8.48" height="3.95" rx="1.98"></rect><path class="cls-5" d="M33.23,70.28l7.9-5.62h5.49a2,2,0,0,1,2,2,2,2,0,0,1-2,2h-5.7v1.22"></path><rect class="cls-5" x="44.89" y="72.74" width="8.48" height="3.95" rx="1.98"></rect><rect class="cls-5" x="42.95" y="76.85" width="8.48" height="3.95" rx="1.98"></rect><rect class="cls-5" x="41.33" y="80.97" width="8.48" height="3.95" rx="1.98"></rect></g></svg>